<?xml version="1.0" encoding="UTF-8" standalone="no"?>
<svg
   xmlns:dc="http://purl.org/dc/elements/1.1/"
   xmlns:cc="http://creativecommons.org/ns#"
   xmlns:rdf="http://www.w3.org/1999/02/22-rdf-syntax-ns#"
   xmlns:svg="http://www.w3.org/2000/svg"
   xmlns="http://www.w3.org/2000/svg"
   xmlns:sodipodi="http://sodipodi.sourceforge.net/DTD/sodipodi-0.dtd"
   xmlns:inkscape="http://www.inkscape.org/namespaces/inkscape"
   height="39"
   viewBox="0 0 136 39.000001"
   width="136"
   id="svg2"
   version="1.1"
   inkscape:version="0.91 r13725"
   sodipodi:docname="logo-dark.svg">
  <metadata
     id="metadata22">
    <rdf:RDF>
      <cc:Work
         rdf:about="">
        <dc:format>image/svg+xml</dc:format>
        <dc:type
           rdf:resource="http://purl.org/dc/dcmitype/StillImage" />
        <dc:title></dc:title>
      </cc:Work>
    </rdf:RDF>
  </metadata>
  <defs
     id="defs20" />
  <sodipodi:namedview
     pagecolor="#ffffff"
     bordercolor="#666666"
     borderopacity="1"
     objecttolerance="10"
     gridtolerance="10"
     guidetolerance="10"
     inkscape:pageopacity="0"
     inkscape:pageshadow="2"
     inkscape:window-width="640"
     inkscape:window-height="480"
     id="namedview18"
     showgrid="false"
     inkscape:zoom="7.0186895"
     inkscape:cx="124.31788"
     inkscape:cy="27.392901"
     inkscape:window-x="0"
     inkscape:window-y="0"
     inkscape:window-maximized="0"
     inkscape:current-layer="svg2" />
  <g
     transform="translate(-7.300015,-902.61889)"
     id="g4">
    <path
       d="m 38.754045,933.2561 -4.740471,0 10.651607,-29.59903 5.159598,0 10.651607,29.59903 -4.740471,0 -2.702647,-7.83334 -11.562124,0 z m 4.017838,-11.59103 8.960646,0 -4.364701,-12.63162 -0.231243,0 z"
       id="path6"
       inkscape:connector-curvature="0" />
    <path
       d="m 68.685493,903.65707 0,29.59903 -4.321344,0 0,-29.59903 z"
       id="path8"
       inkscape:connector-curvature="0" />
    <path
       d="m 84.106476,933.70414 q -3.2663,0 -5.636535,-1.41636 -2.370236,-1.41636 -3.656522,-3.97448 -1.271834,-2.57258 -1.271834,-6.01231 0,-3.41083 1.271834,-6.0123 1.286286,-2.60148 3.584258,-4.0612 2.312425,-1.45972 5.405294,-1.45972 2.514762,0 4.754923,1.12731 2.254614,1.11285 3.656522,3.5698 1.41636,2.4425 1.41636,6.46034 l 0,1.53198 -15.782299,0 q 0.08672,3.20849 1.806581,4.94281 1.719866,1.73432 4.494776,1.73432 1.84994,0 3.194037,-0.7949 1.344097,-0.79489 1.922203,-2.37023 l 4.090102,0.73708 q -0.737086,2.70265 -3.179585,4.35025 -2.442498,1.64761 -6.070115,1.64761 z m -6.243547,-13.48433 11.533219,0 q -0.01445,-2.54367 -1.531981,-4.20572 -1.517529,-1.67651 -4.032291,-1.67651 -1.748771,0 -3.063963,0.8238 -1.300739,0.80935 -2.06673,2.15344 -0.751538,1.32965 -0.838254,2.90499 z"
       id="path10"
       inkscape:connector-curvature="0" />
    <path
       d="m 98.465191,941.58083 0,-30.524 4.220179,0 0,3.59871 0.36131,0 q 0.39022,-0.69373 1.08395,-1.60425 0.70818,-0.91052 1.96556,-1.58979 1.27184,-0.69373 3.32411,-0.69373 2.6882,0 4.78383,1.35855 2.11009,1.35855 3.32411,3.91667 1.21403,2.55812 1.21403,6.15683 0,3.58426 -1.19957,6.17129 -1.19957,2.57257 -3.29521,3.94557 -2.09563,1.373 -4.78383,1.373 -2.02337,0 -3.2952,-0.67927 -1.27184,-0.67928 -2.00892,-1.58979 -0.72264,-0.91052 -1.11286,-1.6187 l -0.26015,0 0,11.77891 z m 4.234629,-19.42437 q 0,3.49755 1.50308,5.6799 1.50307,2.1679 4.29243,2.1679 1.93666,0 3.2374,-1.02614 1.31519,-1.04059 1.98001,-2.81827 0.66482,-1.77768 0.66482,-4.00339 0,-2.21125 -0.66482,-3.94557 -0.65037,-1.74877 -1.95111,-2.76046 -1.30074,-1.01168 -3.2663,-1.01168 -2.83272,0 -4.32134,2.12454 -1.47417,2.11008 -1.47417,5.59317 z"
       id="path12"
       inkscape:connector-curvature="0" />
    <path
       d="m 127.90525,920.07528 0,13.18082 -4.32135,0 0,-29.59903 4.26354,0 0,11.01292 0.2746,0 q 0.78044,-1.80658 2.38469,-2.84717 1.60424,-1.05505 4.19127,-1.05505 3.42528,0 5.50646,2.11009 2.09563,2.11009 2.09563,6.258 l 0,14.12024 -4.32134,0 0,-13.59995 q 0,-2.44249 -1.25738,-3.78659 -1.25738,-1.35855 -3.49754,-1.35855 -2.31243,0 -3.81551,1.45972 -1.50307,1.44526 -1.50307,4.10455 z"
       id="path14"
       inkscape:connector-curvature="0" />
    <path
       d="m 25.059477,903.65695 0,29.59925 c -9.010471,3.92808 -8.411521,-10.16335 -17.7595409,-5.91986 z"
       id="path16"
       inkscape:connector-curvature="0"
       style="fill:#0046a6;fill-rule:evenodd" />
  </g>
</svg>
